<?xml version="1.0" standalone="no"?>
<!DOCTYPE svg PUBLIC "-//W3C//DTD SVG 20010904//EN"
 "http://www.w3.org/TR/2001/REC-SVG-20010904/DTD/svg10.dtd">
<svg version="1.0" xmlns="http://www.w3.org/2000/svg"
 width="128.000000pt" height="128.000000pt" viewBox="0 0 128.000000 128.000000"
 preserveAspectRatio="xMidYMid meet">
<metadata>
Created by potrace 1.11, written by Peter Selinger 2001-2013
</metadata>
<g transform="translate(0.000000,128.000000) scale(0.100000,-0.100000)"
fill="#000000" stroke="none">
<path d="M987 1137 c-5 -13 3 -18 31 -22 93 -16 156 -54 191 -115 22 -40 25
-47 35 -116 7 -43 11 -49 25 -39 17 10 13 69 -9 128 -35 94 -121 162 -219 174
-38 4 -49 2 -54 -10z"/>
<path d="M1012 1064 c1 -9 14 -19 27 -21 68 -10 131 -67 131 -120 0 -32 10
-53 26 -53 21 0 18 64 -5 108 -31 60 -76 90 -149 99 -28 4 -33 1 -30 -13z"/>
<path d="M1035 1000 c-9 -14 3 -27 30 -32 11 -1 28 -19 38 -40 22 -46 37 -49
37 -9 0 52 -83 116 -105 81z"/>
<path d="M1007 923 c-4 -3 -7 -15 -7 -25 0 -19 5 -19 -142 -21 -45 -1 -82 -7
-89 -14 -17 -17 -18 -688 -1 -705 6 -6 44 -12 84 -12 l73 -1 3 213 c1 116 0
212 -3 212 -4 0 -21 -11 -39 -25 -18 -13 -49 -31 -69 -40 l-37 -15 0 55 c0 33
4 55 11 55 23 0 119 77 141 113 22 35 26 37 68 35 l45 -3 0 -298 c0 -242 2
-294 12 -280 18 24 19 733 1 751 -13 13 -41 16 -51 5z"/>
<path d="M122 736 c-152 -55 -164 -297 -18 -373 43 -22 114 -18 150 8 l29 22
-6 -48 c-4 -26 -13 -59 -19 -73 -25 -51 -112 -56 -124 -7 -6 23 -11 25 -55 24
-65 -3 -70 -7 -54 -52 27 -77 85 -112 176 -104 78 7 127 39 165 109 33 62 47
200 31 309 -22 147 -148 232 -275 185z m117 -110 c43 -45 46 -127 6 -170 -27
-29 -60 -33 -92 -11 -24 17 -45 77 -38 110 2 11 4 27 4 36 2 26 40 59 70 59
16 0 37 -10 50 -24z"/>
<path d="M596 721 c-18 -34 -77 -87 -121 -108 -34 -16 -43 -40 -37 -95 l3 -28
37 15 c20 9 50 27 68 40 18 14 35 25 37 25 3 0 5 -69 6 -152 0 -84 0 -181 0
-215 l1 -63 55 0 c45 0 55 3 56 18 1 9 2 146 3 305 l1 287 -47 0 c-42 0 -49
-3 -62 -29z"/>
</g>
</svg>
